<svg width="200" height="200" viewBox="0 0 200 200" xmlns="http://www.w3.org/2000/svg">
  <rect width="200" height="200" fill="white"/>
  <rect x="10" y="10" width="180" height="180" fill="none" stroke="black" stroke-width="2"/>
  
  <!-- QR Code pattern (simplified) -->
  <rect x="20" y="20" width="8" height="8" fill="black"/>
  <rect x="32" y="20" width="8" height="8" fill="black"/>
  <rect x="44" y="20" width="8" height="8" fill="black"/>
  <rect x="56" y="20" width="8" height="8" fill="black"/>
  <rect x="68" y="20" width="8" height="8" fill="black"/>
  <rect x="80" y="20" width="8" height="8" fill="black"/>
  
  <rect x="20" y="32" width="8" height="8" fill="black"/>
  <rect x="44" y="32" width="8" height="8" fill="black"/>
  <rect x="68" y="32" width="8" height="8" fill="black"/>
  
  <rect x="20" y="44" width="8" height="8" fill="black"/>
  <rect x="32" y="44" width="8" height="8" fill="black"/>
  <rect x="44" y="44" width="8" height="8" fill="black"/>
  <rect x="56" y="44" width="8" height="8" fill="black"/>
  <rect x="68" y="44" width="8" height="8" fill="black"/>
  <rect x="80" y="44" width="8" height="8" fill="black"/>
  
  <rect x="20" y="56" width="8" height="8" fill="black"/>
  <rect x="44" y="56" width="8" height="8" fill="black"/>
  <rect x="68" y="56" width="8" height="8" fill="black"/>
  
  <rect x="20" y="68" width="8" height="8" fill="black"/>
  <rect x="32" y="68" width="8" height="8" fill="black"/>
  <rect x="44" y="68" width="8" height="8" fill="black"/>
  <rect x="56" y="68" width="8" height="8" fill="black"/>
  <rect x="68" y="68" width="8" height="8" fill="black"/>
  <rect x="80" y="68" width="8" height="8" fill="black"/>
  
  <rect x="20" y="80" width="8" height="8" fill="black"/>
  <rect x="44" y="80" width="8" height="8" fill="black"/>
  <rect x="68" y="80" width="8" height="8" fill="black"/>
  
  <!-- Center logo placeholder -->
  <rect x="85" y="85" width="30" height="30" fill="none" stroke="black" stroke-width="1"/>
  <text x="100" y="102" text-anchor="middle" font-family="Arial" font-size="8" fill="black">VOB</text>
  
  <!-- Text -->
  <text x="100" y="170" text-anchor="middle" font-family="Arial" font-size="12" fill="black">Scan to Pay</text>
</svg> 